HIERARCHY
ROOT Hips
{
	OFFSET -3.958830 18.904000 13.208200
	CHANNELS 6 Xposition Yposition Zposition Zrotation Yrotation Xrotation 
	JOINT LHipJoint
	{
		OFFSET 0.000000 0.000000 0.000000
		CHANNELS 3 Zrotation Yrotation Xrotation
		JOINT LeftUpLeg
		{
			OFFSET 1.800000 -1.400000 0.085000
			CHANNELS 3 Zrotation Yrotation Xrotation
			JOINT LeftLeg
			{
				OFFSET 2.215000 -6.000000 0.000000
				CHANNELS 3 Zrotation Yrotation Xrotation
				JOINT LeftFoot
				{
					OFFSET 2.500000 -6.900000 0.000000
					CHANNELS 3 Zrotation Yrotation Xrotation
					JOINT LeftToeBase
					{
						OFFSET 0.200000 -0.500000 1.950000
						CHANNELS 3 Zrotation Yrotation Xrotation
						End Site
						{
							OFFSET 0.000000 0.000000 0.000000
						}
					}
				}
			}
		}
	}
	JOINT RHipJoint
	{
		OFFSET 0.000000 0.000000 0.000000
		CHANNELS 3 Zrotation Yrotation Xrotation
		JOINT RightUpLeg
		{
			OFFSET -1.800000 -1.400000 0.085000
			CHANNELS 3 Zrotation Yrotation Xrotation
			JOINT RightLeg
			{
				OFFSET -2.215000 -6.000000 0.000000
				CHANNELS 3 Zrotation Yrotation Xrotation
				JOINT RightFoot
				{
					OFFSET -2.500000 -6.900000 0.000000
					CHANNELS 3 Zrotation Yrotation Xrotation
					JOINT RightToeBase
					{
						OFFSET -0.200000 -0.500000 1.950000
						CHANNELS 3 Zrotation Yrotation Xrotation
						End Site
						{
							OFFSET 0.000000 0.000000 0.000000
						}
					}
				}
			}
		}
	}
	JOINT LowerBack
	{
		OFFSET 0.000000 0.000000 0.000000
		CHANNELS 3 Zrotation Yrotation Xrotation
		JOINT Spine
		{
			OFFSET -0.087000 1.940000 -0.288900
			CHANNELS 3 Zrotation Yrotation Xrotation
			JOINT Spine1
			{
				OFFSET 0.000000 1.950000 0.060000
				CHANNELS 3 Zrotation Yrotation Xrotation
				JOINT Neck
				{
					OFFSET 0.000000 0.000000 0.000000
					CHANNELS 3 Zrotation Yrotation Xrotation
					JOINT Neck1
					{
						OFFSET 0.000000 1.600000 0.340000
						CHANNELS 3 Zrotation Yrotation Xrotation
						JOINT Head
						{
							OFFSET 0.000000 1.667000 -0.240000
							CHANNELS 3 Zrotation Yrotation Xrotation
							End Site
							{
								OFFSET 0.000000 0.000000 0.000000
							}
						}
					}
				}
				JOINT LeftShoulder
				{
					OFFSET 0.000000 0.000000 0.000000
					CHANNELS 3 Zrotation Yrotation Xrotation
					JOINT LeftArm
					{
						OFFSET 2.700000 1.550000 -0.730000
						CHANNELS 3 Zrotation Yrotation Xrotation
						JOINT LeftForeArm
						{
							OFFSET 5.450000 0.000000 0.000000
							CHANNELS 3 Zrotation Yrotation Xrotation
							JOINT LeftHand
							{
								OFFSET 3.450000 0.000000 0.000000
								CHANNELS 3 Zrotation Yrotation Xrotation
								JOINT LeftHandIndex1
								{
									OFFSET 0.750000 0.000000 0.000000
									CHANNELS 3 Zrotation Yrotation Xrotation
									End Site
									{
										OFFSET 0.000000 0.000000 0.000000
									}
								}
							}
						}
					}
				}
				JOINT RightShoulder
				{
					OFFSET 0.000000 0.000000 0.000000
					CHANNELS 3 Zrotation Yrotation Xrotation
					JOINT RightArm
					{
						OFFSET -2.700000 1.550000 -0.730000
						CHANNELS 3 Zrotation Yrotation Xrotation
						JOINT RightForeArm
						{
							OFFSET -5.450000 0.000000 0.000000
							CHANNELS 3 Zrotation Yrotation Xrotation
							JOINT RightHand
							{
								OFFSET -3.450000 0.000000 0.000000
								CHANNELS 3 Zrotation Yrotation Xrotation
								JOINT RightHandIndex1
								{
									OFFSET -0.750000 0.000000 0.000000
									CHANNELS 3 Zrotation Yrotation Xrotation
									End Site
									{
										OFFSET 0.000000 0.000000 0.000000
									}
								}
							}
						}
					}
				}
			}
		}
	}
}
MOTION
Frames: 14
Frame Time: 0.016667
-0.355380 17.033820 -4.967890 -2.159769 2.878353 5.245142 -15.133756 12.818851 3.068002 1.719591 -1.429121 -12.239193 -13.014891 5.958010 7.097931 -0.248680 4.463044 3.420517 -0.239830 -0.574590 -0.459700 18.364683 -10.710537 2.722119 -4.154748 2.285421 -20.160835 9.650466 -5.291779 13.311227 0.180384 -3.348719 3.445778 -0.229820 0.962780 0.225200 -3.811649 -1.134416 -7.012179 7.441754 -0.527091 3.893788 -1.599704 -0.576999 -0.615052 0.655894 -1.709187 -3.480731 -4.508682 2.622050 33.822456 0.653700 -1.588330 9.319290 -28.435252 1.629744 -1.153976 -54.147616 -3.277839 -2.208637 -5.477819 -7.316357 -1.072019 -4.424509 2.847288 0.081040 0.570080 -0.573880 0.259660 27.179700 -0.164337 -0.084184 53.375614 2.895184 -5.068764 8.596041 11.719844 -0.461406 2.225212 -1.295514 -0.342490 0.304360 0.405340 0.035730 
-0.355860 17.032530 -4.967100 -2.117285 2.999602 5.329750 -15.138047 12.816315 3.062876 1.648457 -1.440070 -12.290775 -12.932334 5.933123 7.087819 -0.253491 4.455882 3.425974 -0.243400 -0.577500 -0.469510 18.363664 -10.704404 2.718375 -4.170216 2.279975 -20.200196 9.642198 -5.278626 13.249868 0.186848 -3.350611 3.447501 -0.228120 0.974620 0.226670 -3.805519 -1.141467 -6.995819 7.362559 -0.544431 3.807547 -1.551578 -0.606315 -0.598143 0.613185 -1.710667 -3.409119 -4.476175 2.651135 33.511088 0.773750 -1.658010 9.365470 -28.356804 1.763424 -1.207930 -54.303437 -3.365826 -2.192764 -5.423240 -7.386008 -1.080498 -4.434022 2.850633 0.073890 0.578030 -0.582990 0.262390 27.195616 -0.309956 -0.164987 53.383259 2.923757 -5.041221 8.581958 11.655598 -0.473501 2.222532 -1.299465 -0.344730 0.306300 0.409880 0.039600 
-0.358510 17.030810 -4.966000 -1.939022 3.227130 5.471894 -15.155618 12.821742 3.057470 1.423149 -1.475031 -12.449987 -12.742429 5.910340 7.235486 -0.261431 4.439092 3.435004 -0.256840 -0.591180 -0.482050 18.348995 -10.697760 2.711831 -4.264988 2.250812 -20.249751 9.595407 -5.249215 13.109428 0.198863 -3.349097 3.448396 -0.231220 0.988550 0.229560 -3.761301 -1.163959 -6.973895 6.937363 -0.528311 3.681330 -1.366924 -0.604139 -0.624198 0.608035 -1.563199 -3.325758 -4.174333 2.546559 33.147130 0.662820 -1.632790 9.596010 -28.284734 1.903849 -1.267336 -54.441581 -3.490151 -2.156232 -5.340645 -7.446755 -1.086068 -4.451157 2.853007 0.062710 0.591340 -0.595350 0.260690 27.197977 -0.536295 -0.270576 53.475075 2.922607 -5.011419 8.492242 11.557310 -0.494311 2.222042 -1.303253 -0.349460 0.305190 0.418930 0.041950 
-0.361900 17.028640 -4.963570 -1.814335 3.352176 5.559148 -15.169456 12.822837 3.049679 1.253159 -1.491423 -12.517311 -12.571846 5.888355 7.336267 -0.268016 4.426726 3.441059 -0.261870 -0.598660 -0.481460 18.338637 -10.694348 2.706589 -4.292071 2.216889 -20.200065 9.536887 -5.207026 12.896751 0.206207 -3.342767 3.450935 -0.232890 0.994950 0.234270 -3.727329 -1.171460 -6.952087 6.594820 -0.475696 3.559497 -1.210307 -0.565860 -0.506116 0.625213 -1.403639 -3.291673 -3.859254 2.421464 32.884176 0.478190 -1.552840 9.676630 -28.165286 1.908548 -1.254496 -54.662620 -3.590159 -2.199793 -5.187618 -7.735601 -1.104296 -4.463725 2.854995 0.054890 0.601210 -0.602340 0.256890 27.102231 -0.625188 -0.342368 53.699058 3.034926 -4.934851 8.326299 11.322617 -0.518645 2.223593 -1.306404 -0.350400 0.302550 0.423330 0.040530 
-0.365650 17.027900 -4.959760 -1.796812 3.475174 5.642950 -15.172287 12.816250 3.042185 1.236746 -1.492145 -12.535081 -12.477896 5.860305 7.302054 -0.261759 4.411825 3.448489 -0.262690 -0.598260 -0.481710 18.338780 -10.696208 2.705807 -4.183433 2.195403 -20.128108 9.417655 -5.140920 12.673379 0.209013 -3.324860 3.456817 -0.234340 0.997130 0.237590 -3.724378 -1.154537 -6.938136 6.506117 -0.434628 3.456834 -1.143685 -0.536538 -0.479527 0.620391 -1.351119 -3.248051 -3.744322 2.325019 32.735857 0.433450 -1.596570 9.774680 -28.092525 2.025817 -1.277203 -54.911212 -3.663752 -2.289649 -4.840019 -8.152910 -1.130938 -4.466403 2.860073 0.045430 0.603990 -0.603590 0.258100 27.052886 -0.753042 -0.404925 53.780846 3.094699 -4.840984 8.346087 11.090962 -0.522630 2.231387 -1.311629 -0.345120 0.298810 0.421430 0.044800 
-0.367050 17.030930 -4.957070 -1.792511 3.411113 5.591349 -15.169338 12.817469 3.041944 1.217071 -1.461751 -12.392786 -12.380607 5.823586 7.218413 -0.269254 4.388836 3.444212 -0.250070 -0.582910 -0.472990 18.339652 -10.706209 2.711000 -4.150373 2.168835 -19.986498 9.393878 -5.112558 12.505609 0.200304 -3.310007 3.456263 -0.228490 0.975500 0.236070 -3.729282 -1.135970 -6.950254 6.512561 -0.345280 3.538649 -1.160899 -0.436225 -0.464279 0.635974 -1.367706 -3.287308 -3.813801 2.284083 33.080205 0.582910 -1.723390 9.403870 -28.114381 2.005185 -1.264604 -55.005354 -3.674875 -2.419288 -4.593120 -8.671864 -1.163293 -4.446843 2.861822 0.059110 0.587570 -0.589980 0.253240 27.036041 -0.677349 -0.356688 53.822814 3.101742 -4.823269 8.305150 11.007455 -0.511173 2.232648 -1.306614 -0.339110 0.293220 0.418250 0.039820 
-0.367700 17.032850 -4.952550 -1.817454 3.430773 5.534790 -15.167056 12.815432 3.042413 1.262926 -1.438311 -12.248743 -12.387823 5.808687 7.128666 -0.281233 4.395077 3.437979 -0.236520 -0.575790 -0.463700 18.341506 -10.713552 2.710582 -4.090148 2.140421 -19.810802 9.328270 -5.087668 12.365936 0.191806 -3.302123 3.458186 -0.223540 0.966220 0.238360 -3.735375 -1.120836 -6.956124 6.545985 -0.282957 3.582290 -1.160726 -0.367294 -0.393454 0.641250 -1.361603 -3.315304 -3.831337 2.245122 33.310404 0.756940 -1.886710 9.084480 -28.102128 1.973648 -1.239286 -55.134492 -3.674417 -2.577266 -4.428143 -9.354120 -1.208820 -4.432184 2.861875 0.077160 0.577950 -0.582550 0.254380 27.009620 -0.625593 -0.325203 53.823713 3.126148 -4.794864 8.357841 10.916392 -0.495037 2.225860 -1.303452 -0.340340 0.293650 0.416580 0.032930 
-0.370010 17.034310 -4.948210 -1.813993 3.558873 5.510051 -15.169462 12.824211 3.040817 1.253980 -1.437123 -12.237662 -12.291164 5.797174 7.178227 -0.287497 4.389039 3.437837 -0.235280 -0.575680 -0.461390 18.338070 -10.717276 2.710741 -4.006619 2.111785 -19.684945 9.233395 -5.058869 12.261462 0.189679 -3.288699 3.463737 -0.223870 0.964220 0.237990 -3.728290 -1.130714 -6.959808 6.483485 -0.310368 3.627294 -1.127387 -0.388350 -0.350333 0.633895 -1.342548 -3.355313 -3.813581 2.231144 33.422749 0.880520 -1.969000 8.900040 -28.060819 1.913792 -1.174607 -55.236482 -3.640948 -2.760602 -4.231954 -10.104510 -1.249327 -4.424778 2.857270 0.084360 0.573920 -0.578670 0.252400 26.996640 -0.568537 -0.308055 53.840254 3.179266 -4.760428 8.377795 10.860338 -0.482450 2.224715 -1.295420 -0.341350 0.297780 0.418950 0.031160 
-0.372990 17.035300 -4.939990 -1.748584 3.474070 5.476451 -15.175835 12.833718 3.033296 1.122808 -1.398759 -12.076544 -12.069060 5.748022 7.126371 -0.298123 4.379359 3.445187 -0.238540 -0.580920 -0.468210 18.332999 -10.719661 2.705965 -4.046356 2.082718 -19.574753 9.235264 -5.066564 12.225467 0.189814 -3.299051 3.462916 -0.223640 0.973890 0.239830 -3.710821 -1.141396 -6.946744 6.310834 -0.258955 3.579599 -1.006808 -0.339814 -0.257258 0.590949 -1.352458 -3.347101 -3.841986 2.270127 33.435190 0.955220 -2.016600 8.874830 -27.985090 1.949425 -1.152821 -55.319364 -3.645707 -2.860403 -4.193986 -10.660616 -1.275172 -4.427497 2.853924 0.087590 0.578770 -0.582690 0.254370 27.029473 -0.567937 -0.325648 53.720403 3.252545 -4.688325 8.496792 10.749714 -0.468239 2.218429 -1.292238 -0.346800 0.304030 0.425380 0.031410 
-0.374560 17.032230 -4.933290 -1.821003 3.601714 5.542409 -15.167698 12.827623 3.015138 1.124831 -1.401460 -12.130149 -11.894636 5.729778 7.208427 -0.299359 4.368430 3.450818 -0.248370 -0.587690 -0.483550 18.345164 -10.719783 2.705808 -3.998948 2.085238 -19.583573 9.310694 -5.082509 12.231134 0.199553 -3.316839 3.457835 -0.223650 0.987850 0.238950 -3.742319 -1.126254 -6.919008 6.518944 -0.325322 3.428874 -1.065947 -0.427621 -0.158020 0.512081 -1.446830 -3.265629 -3.966997 2.314127 33.061553 1.041450 -2.125150 9.099830 -27.687302 2.216868 -1.212083 -55.582332 -3.812903 -2.863160 -4.272758 -11.090851 -1.274108 -4.439394 2.862744 0.070040 0.589250 -0.598090 0.253610 26.854573 -0.810283 -0.444435 53.826103 3.403337 -4.591426 8.574502 10.688397 -0.476002 2.221734 -1.299892 -0.347390 0.302750 0.432940 0.038270 
-0.377610 17.031910 -4.926280 -1.891021 3.546768 5.479822 -15.165317 12.831459 3.006669 1.202130 -1.367111 -11.992684 -11.845786 5.726391 7.181864 -0.303402 4.374293 3.447780 -0.244550 -0.580170 -0.484050 18.348770 -10.719335 2.704568 -3.958129 2.082380 -19.503545 9.378908 -5.111207 12.305246 0.195751 -3.329538 3.452888 -0.216600 0.987330 0.236140 -3.750437 -1.130885 -6.910735 6.607463 -0.328255 3.421456 -1.029236 -0.434128 -0.016606 0.465436 -1.505642 -3.247843 -4.093182 2.340855 33.087652 1.106990 -2.180310 8.910100 -27.568045 2.251735 -1.224495 -55.650691 -3.960498 -2.845972 -4.347857 -11.374601 -1.274255 -4.437616 2.860810 0.070970 0.587710 -0.597270 0.254330 26.819905 -0.815157 -0.467711 53.707470 3.526709 -4.517321 8.755093 10.665278 -0.461042 2.218813 -1.298415 -0.348950 0.308300 0.433350 0.038420 
-0.380880 17.031560 -4.923330 -1.921781 3.759369 5.470948 -15.170311 12.848383 2.995439 1.212325 -1.383136 -12.068499 -11.663791 5.726125 7.393747 -0.306509 4.370912 3.451057 -0.238090 -0.576070 -0.477370 18.343717 -10.711313 2.705345 -3.979600 2.075488 -19.463560 9.488034 -5.140449 12.313306 0.190994 -3.341494 3.447747 -0.213930 0.990070 0.242290 -3.738926 -1.171688 -6.901765 6.580297 -0.412136 3.426462 -0.887245 -0.521869 0.098810 0.408806 -1.538616 -3.234007 -4.182982 2.336038 33.032649 1.024290 -2.172510 8.841760 -27.398722 2.267034 -1.235918 -55.779513 -4.220124 -2.756356 -4.420643 -11.603564 -1.272397 -4.441214 2.864025 0.068930 0.590810 -0.595760 0.257770 26.780745 -0.833929 -0.500808 53.501658 3.668657 -4.438791 8.983921 10.720301 -0.444065 2.216680 -1.302751 -0.346070 0.309250 0.430100 0.039230 
-0.381810 17.032710 -4.919530 -1.973352 3.887059 5.393290 -15.166175 12.864157 2.991496 1.264346 -1.370979 -12.025077 -11.576552 5.732830 7.510991 -0.303927 4.361674 3.449547 -0.228060 -0.558200 -0.472490 18.344510 -10.714054 2.706558 -4.038834 2.055117 -19.375762 9.623032 -5.196362 12.421768 0.179054 -3.354544 3.441231 -0.207860 0.981170 0.240070 -3.748568 -1.194974 -6.909695 6.718766 -0.499579 3.532791 -0.921215 -0.601939 0.148051 0.371148 -1.635392 -3.264548 -4.409334 2.397559 33.266318 1.192400 -2.250530 8.513600 -27.327787 2.236940 -1.231150 -55.747225 -4.386673 -2.725075 -4.428240 -11.868735 -1.267488 -4.428375 2.860892 0.074080 0.580960 -0.583380 0.259980 26.767836 -0.768790 -0.469883 53.393766 3.725472 -4.430499 9.072192 10.863945 -0.426865 2.218088 -1.296570 -0.340000 0.313620 0.423540 0.042610 
-0.379770 17.033400 -4.916070 -2.077116 4.085596 5.341550 -15.156278 12.872062 2.983773 1.348832 -1.378463 -12.038555 -11.491096 5.746178 7.690130 -0.299351 4.351281 3.450093 -0.209240 -0.538490 -0.455870 18.351273 -10.718243 2.713284 -4.077747 2.039520 -19.291855 9.823874 -5.252578 12.447965 0.164926 -3.369451 3.434974 -0.202440 0.967350 0.240640 -3.776355 -1.198891 -6.918267 7.000575 -0.622153 3.608297 -1.078673 -0.721128 0.201573 0.389205 -1.684552 -3.316154 -4.521919 2.395570 33.412027 1.295410 -2.314250 8.272340 -27.246912 2.162307 -1.210283 -55.714973 -4.550240 -2.718525 -4.298153 -12.154439 -1.276287 -4.411192 2.865634 0.079590 0.569980 -0.571200 0.264150 26.619460 -0.721926 -0.413159 53.428872 3.743001 -4.458829 9.139219 11.123990 -0.417140 2.220086 -1.299886 -0.330630 0.310510 0.408880 0.042530 
